<?xml version="1.0" standalone="no"?>
<!DOCTYPE svg PUBLIC "-//W3C//DTD SVG 20010904//EN"
 "http://www.w3.org/TR/2001/REC-SVG-20010904/DTD/svg10.dtd">
<svg version="1.0" xmlns="http://www.w3.org/2000/svg"
 width="500.000000pt" height="500.000000pt" viewBox="0 0 500.000000 500.000000"
 preserveAspectRatio="xMidYMid meet">
<metadata>
Created by potrace 1.11, written by Peter Selinger 2001-2013
</metadata>
<g transform="translate(0.000000,500.000000) scale(0.100000,-0.100000)"
fill="#000000" stroke="none">
<path d="M1970 4972 c0 -21 7 -31 28 -39 l27 -11 -27 -1 c-34 -1 -38 -27 -5
-37 l22 -8 -25 -6 c-21 -5 -25 -12 -25 -40 0 -31 4 -36 30 -41 l30 -7 -31 -1
c-28 -1 -32 -5 -38 -38 -3 -21 -6 -57 -6 -79 0 -23 -11 -86 -25 -140 -31 -121
-31 -138 -2 -152 21 -10 20 -11 -10 -11 -31 -1 -33 -3 -34 -38 -1 -21 -1 -42
0 -46 1 -4 -23 -60 -52 -125 l-53 -117 26 -23 25 -22 -29 10 c-22 8 -31 8 -38
-2 -13 -21 -9 -31 20 -55 l27 -23 -37 15 -37 15 -10 -36 c-9 -33 -8 -39 15
-57 32 -25 26 -32 -12 -12 -27 14 -29 13 -41 -8 -6 -12 -8 -23 -2 -25 5 -2 9
-9 9 -15 0 -6 12 -24 28 -40 l27 -29 -28 13 c-23 10 -30 10 -42 -2 -7 -8 -15
-21 -17 -29 -2 -8 -13 -31 -25 -50 l-23 -34 30 -31 c41 -42 38 -52 -6 -19
l-35 27 -27 -28 c-18 -20 -20 -23 -4 -11 25 22 29 11 7 -20 -8 -12 -12 -24 -9
-27 3 -3 -27 -39 -66 -79 -46 -46 -74 -68 -77 -60 -4 10 -11 8 -29 -9 -13 -12
-24 -28 -24 -35 0 -18 -73 -76 -80 -64 -4 7 -17 3 -32 -10 -15 -11 -31 -20
-37 -20 -5 0 -15 -8 -20 -17 -6 -10 -11 -14 -11 -10 0 5 -14 -2 -32 -14 -17
-13 -28 -18 -24 -11 4 7 2 12 -3 12 -6 0 -11 -11 -11 -25 0 -14 -6 -25 -12
-25 -7 0 -48 -17 -91 -37 l-78 -38 6 -35 c6 -34 5 -34 -8 -10 -9 17 -20 24
-36 23 -13 -2 -20 1 -16 7 3 6 1 10 -4 10 -14 0 -14 -21 -1 -57 l10 -28 -19
23 c-11 12 -22 28 -25 35 -3 9 -8 8 -15 -4 -6 -9 -25 -22 -43 -30 -18 -7 -49
-23 -68 -35 -19 -12 -54 -28 -78 -35 -41 -12 -42 -13 -37 -48 l5 -36 -17 38
c-18 43 -15 43 -131 11 l-63 -17 5 -41 6 -41 -13 35 c-10 27 -20 36 -41 38
-15 2 -33 -2 -41 -8 -13 -11 -113 -26 -243 -37 l-72 -6 0 -1413 0 -1414 2500
0 2500 0 0 2500 0 2500 -1515 0 -1515 0 0 -28z m-170 -1730 c8 -2 36 -5 61 -8
66 -5 90 -17 132 -63 30 -33 37 -49 37 -82 0 -103 -90 -158 -186 -113 -59 28
-93 100 -94 201 0 16 -5 21 -20 18 -28 -5 -25 4 12 42 22 23 34 29 38 21 3 -7
12 -15 20 -16z m-894 -1339 c-3 -8 -6 -19 -6 -24 0 -4 -6 -6 -14 -3 -8 3 -25
-1 -38 -9 -15 -10 -49 -15 -93 -16 l-70 0 80 29 c44 16 86 30 93 30 6 0 12 4
12 9 0 5 9 7 21 4 12 -4 18 -11 15 -20z m-306 -79 c0 -8 -4 -12 -10 -9 -5 3
-10 10 -10 16 0 5 5 9 10 9 6 0 10 -7 10 -16z"/>
<path d="M1660 3755 c-8 -9 -8 -15 -2 -15 12 0 26 19 19 26 -2 2 -10 -2 -17
-11z"/>
<path d="M1519 3483 l-34 -38 38 34 c34 33 42 41 34 41 -2 0 -19 -17 -38 -37z"/>
</g>
</svg>
